<svg xmlns="http://www.w3.org/2000/svg" xmlns:xlink="http://www.w3.org/1999/xlink" width="500" zoomAndPan="magnify" viewBox="0 0 375 374.999991" height="500" preserveAspectRatio="xMidYMid meet" version="1.0"><defs><g/></defs><g fill="#69aed6" fill-opacity="1"><g transform="translate(161.465852, 207.424779)"><g><path d="M 62.9375 0 C 61.726562 0.800781 60.117188 0.597656 58.109375 -0.609375 L 56.28125 -2.421875 C 55.882812 -2.421875 54.878906 -2.820312 53.265625 -3.625 L 29.65625 -26.03125 L 29.65625 -7.875 C 29.65625 -7.46875 29.753906 -6.859375 29.953125 -6.046875 C 30.160156 -5.242188 29.859375 -4.4375 29.046875 -3.625 C 27.429688 -2.007812 25.617188 -1.003906 23.609375 -0.609375 C 22.390625 -0.203125 19.96875 0 16.34375 0 C 14.320312 0 12.300781 -0.601562 10.28125 -1.8125 L 8.46875 -3.625 C 8.070312 -3.625 7.066406 -4.03125 5.453125 -4.84375 C 3.835938 -6.050781 3.03125 -7.664062 3.03125 -9.6875 L 2.421875 -66.578125 C 2.421875 -87.148438 3.429688 -97.84375 5.453125 -98.65625 C 7.066406 -99.863281 9.890625 -100.671875 13.921875 -101.078125 C 19.160156 -101.078125 22.390625 -99.863281 23.609375 -97.4375 C 28.046875 -96.632812 29.859375 -94.414062 29.046875 -90.78125 C 29.453125 -87.550781 29.65625 -79.078125 29.65625 -65.359375 L 48.421875 -95.015625 C 48.816406 -96.234375 50.023438 -97.242188 52.046875 -98.046875 L 55.078125 -98.046875 L 54.46875 -98.65625 L 55.078125 -98.65625 L 57.5 -97.4375 L 61.734375 -95.625 L 62.34375 -94.421875 C 63.144531 -94.421875 63.546875 -94.21875 63.546875 -93.8125 L 66.578125 -92.59375 L 67.1875 -91.390625 L 69 -90.171875 C 69.800781 -89.367188 70.203125 -88.765625 70.203125 -88.359375 L 70.8125 -87.75 L 71.421875 -85.9375 C 71.421875 -83.925781 71.015625 -82.3125 70.203125 -81.09375 L 49.015625 -45.390625 C 47.804688 -43.773438 45.992188 -43.171875 43.578125 -43.578125 L 70.203125 -18.15625 C 71.410156 -16.945312 72.015625 -15.332031 72.015625 -13.3125 C 72.015625 -11.289062 71.207031 -9.070312 69.59375 -6.65625 C 68.382812 -3.425781 66.164062 -1.207031 62.9375 0 Z M 56.28125 -6.046875 C 58.707031 -7.265625 60.523438 -9.082031 61.734375 -11.5 C 62.941406 -13.519531 63.546875 -15.535156 63.546875 -17.546875 L 21.78125 -57.5 C 21.382812 -57.5 21.1875 -57.296875 21.1875 -56.890625 C 21.1875 -82.304688 20.984375 -95.21875 20.578125 -95.625 C 20.171875 -96.832031 18.15625 -97.4375 14.53125 -97.4375 L 7.265625 -95.625 C 6.453125 -94.820312 6.046875 -84.734375 6.046875 -65.359375 L 6.65625 -8.46875 C 8.269531 -7.257812 9.882812 -6.65625 11.5 -6.65625 C 14.726562 -6.65625 16.742188 -6.859375 17.546875 -7.265625 C 19.566406 -7.671875 20.976562 -8.273438 21.78125 -9.078125 C 21.382812 -10.285156 21.1875 -13.71875 21.1875 -19.375 L 21.1875 -38.734375 Z M 63.546875 -88.359375 L 61.734375 -90.78125 L 59.3125 -92.59375 L 55.6875 -94.421875 C 55.28125 -94.816406 54.773438 -95.015625 54.171875 -95.015625 C 53.566406 -95.015625 53.0625 -95.21875 52.65625 -95.625 L 29.65625 -58.109375 C 30.457031 -56.492188 31.867188 -54.675781 33.890625 -52.65625 C 34.703125 -51.445312 36.921875 -50.4375 40.546875 -49.625 Z M 63.546875 -88.359375 "/></g></g></g><g fill="#38b6ff" fill-opacity="1"><g transform="translate(72.296477, 352.108958)"><g><path d="M 44.25 -225.390625 C 44.25 -239.578125 42.300781 -250.078125 38.40625 -256.890625 C 34.507812 -263.710938 26.71875 -267.125 15.03125 -267.125 L 6.671875 -267.125 L 6.671875 -275.484375 L 115.203125 -275.484375 C 141.910156 -275.484375 165.976562 -269.773438 187.40625 -258.359375 C 208.832031 -246.953125 219.546875 -224.832031 219.546875 -192 C 219.546875 -170.289062 213.976562 -153.59375 202.84375 -141.90625 C 191.71875 -130.21875 179.265625 -122.425781 165.484375 -118.53125 C 151.710938 -114.644531 139.125 -112.703125 127.71875 -112.703125 L 81.8125 -112.703125 L 81.8125 0 L 44.25 0 Z M 113.109375 -127.296875 C 122.015625 -127.296875 131.472656 -129.59375 141.484375 -134.1875 C 151.503906 -138.78125 160.0625 -146.082031 167.15625 -156.09375 C 174.257812 -166.113281 177.8125 -178.78125 177.8125 -194.09375 C 177.8125 -209.394531 174.257812 -222.050781 167.15625 -232.0625 C 160.0625 -242.082031 151.503906 -249.390625 141.484375 -253.984375 C 131.472656 -258.578125 122.015625 -260.875 113.109375 -260.875 C 103.367188 -260.875 92.9375 -259.476562 81.8125 -256.6875 L 81.8125 -131.484375 C 92.9375 -128.691406 103.367188 -127.296875 113.109375 -127.296875 Z M 113.109375 -127.296875 "/></g></g></g></svg>